# WaveFront *.obj file (generated by Autodesk ATF)

mtllib 7e6d1a75-e899-4798-a387-d38591e75462.mtl

g Body1

v 500.000000 500.000000 500.000000
v 24500.000000 500.000000 500.000000
v 24500.000000 500.000000 200.000000
v 500.000000 500.000000 200.000000
v 24500.000000 20500.000000 500.000000
v 24500.000000 20500.000000 200.000000
v 500.000000 20500.000000 500.000000
v 500.000000 20500.000000 200.000000
v 0.000000 0.000000 0.000000
v 25000.000000 0.000000 0.000000
v 25000.000000 0.000000 500.000000
v 0.000000 0.000000 500.000000
v 0.000000 21000.000000 0.000000
v 0.000000 21000.000000 500.000000
v 25000.000000 21000.000000 0.000000
v 25000.000000 21000.000000 500.000000
vt -2399.999999 0.000000 0.000000
vt 0.000000 0.000000 0.000000
vt -2399.999999 30.000000 0.000000
vt -0.000000 30.000000 0.000000
vt -1999.999999 0.000000 0.000000
vt 0.000000 0.000000 0.000000
vt -1999.999999 30.000000 0.000000
vt -0.000000 30.000000 0.000000
vt -2399.999999 0.000000 0.000000
vt -0.000000 0.000000 0.000000
vt -2399.999999 30.000000 0.000000
vt -0.000000 30.000000 0.000000
vt -1999.999999 0.000000 0.000000
vt -0.000000 0.000000 0.000000
vt -1999.999999 30.000000 0.000000
vt -0.000000 30.000000 0.000000
vt -1200.000000 -1000.000000 0.000000
vt 1200.000000 -1000.000000 0.000000
vt -1200.000000 1000.000000 0.000000
vt 1200.000000 1000.000000 0.000000
vt 0.000000 0.000000 0.000000
vt 2499.999999 0.000000 0.000000
vt 0.000000 50.000000 0.000000
vt 2499.999999 50.000000 0.000000
vt 0.000000 0.000000 0.000000
vt 2099.999999 0.000000 0.000000
vt 0.000000 50.000000 0.000000
vt 2099.999999 50.000000 0.000000
vt 0.000000 0.000000 0.000000
vt 2499.999999 0.000000 0.000000
vt 0.000000 50.000000 0.000000
vt 2499.999999 50.000000 0.000000
vt 0.000000 0.000000 0.000000
vt 2099.999999 0.000000 0.000000
vt 0.000000 50.000000 0.000000
vt 2099.999999 50.000000 0.000000
vt 1200.000000 1000.000000 0.000000
vt 1200.000000 -1000.000000 0.000000
vt 1250.000000 -1050.000000 0.000000
vt -1200.000000 -1000.000000 0.000000
vt -1250.000000 -1050.000000 0.000000
vt -1200.000000 1000.000000 0.000000
vt -1250.000000 1050.000000 0.000000
vt 1250.000000 1050.000000 0.000000
vt -1250.000000 -1050.000000 0.000000
vt 1250.000000 -1050.000000 0.000000
vt -1250.000000 1050.000000 0.000000
vt 1250.000000 1050.000000 0.000000
vn -0.000000 0.100000 -0.000000
vn -0.000000 0.100000 -0.000000
vn -0.000000 0.100000 -0.000000
vn -0.000000 0.100000 -0.000000
vn -0.100000 0.000000 0.000000
vn -0.100000 0.000000 0.000000
vn -0.100000 0.000000 0.000000
vn -0.100000 0.000000 0.000000
vn 0.000000 -0.100000 0.000000
vn 0.000000 -0.100000 0.000000
vn 0.000000 -0.100000 0.000000
vn 0.000000 -0.100000 0.000000
vn 0.100000 0.000000 0.000000
vn 0.100000 0.000000 0.000000
vn 0.100000 0.000000 0.000000
vn 0.100000 0.000000 0.000000
vn 0.000000 0.000000 0.100000
vn 0.000000 0.000000 0.100000
vn 0.000000 0.000000 0.100000
vn 0.000000 0.000000 0.100000
vn 0.000000 -0.100000 0.000000
vn 0.000000 -0.100000 0.000000
vn 0.000000 -0.100000 0.000000
vn 0.000000 -0.100000 0.000000
vn -0.100000 0.000000 0.000000
vn -0.100000 0.000000 0.000000
vn -0.100000 0.000000 0.000000
vn -0.100000 0.000000 0.000000
vn 0.000000 0.100000 0.000000
vn 0.000000 0.100000 0.000000
vn 0.000000 0.100000 0.000000
vn 0.000000 0.100000 0.000000
vn 0.100000 0.000000 0.000000
vn 0.100000 0.000000 0.000000
vn 0.100000 0.000000 0.000000
vn 0.100000 0.000000 0.000000
vn 0.000000 0.000000 0.100000
vn 0.000000 0.000000 0.100000
vn 0.000000 0.000000 0.100000
vn 0.000000 0.000000 0.100000
vn 0.000000 0.000000 0.100000
vn 0.000000 0.000000 0.100000
vn 0.000000 0.000000 0.100000
vn 0.000000 0.000000 0.100000
vn 0.000000 0.000000 -0.100000
vn 0.000000 0.000000 -0.100000
vn 0.000000 0.000000 -0.100000
vn 0.000000 0.000000 -0.100000
usemtl Steel_-_Satin
f 1/1/1 2/2/2 4/3/3
f 4/3/3 2/2/2 3/4/4
f 2/5/5 5/6/6 3/7/7
f 3/7/7 5/6/6 6/8/8
f 5/9/9 7/10/10 6/11/11
f 6/11/11 7/10/10 8/12/12
f 7/13/13 1/14/14 8/15/15
f 8/15/15 1/14/14 4/16/16
f 4/17/17 3/18/18 8/19/19
f 8/19/19 3/18/18 6/20/20
f 9/21/21 10/22/22 12/23/23
f 12/23/23 10/22/22 11/24/24
f 13/25/25 9/26/26 14/27/27
f 14/27/27 9/26/26 12/28/28
f 15/29/29 13/30/30 16/31/31
f 16/31/31 13/30/30 14/32/32
f 10/33/33 15/34/34 11/35/35
f 11/35/35 15/34/34 16/36/36
f 5/37/37 2/38/38 11/39/39
f 11/39/39 2/38/38 1/40/40
f 11/39/39 1/40/40 12/41/41
f 12/41/41 1/40/40 7/42/42
f 12/41/41 7/42/42 14/43/43
f 14/43/43 7/42/42 5/37/37
f 14/43/43 5/37/37 16/44/44
f 16/44/44 5/37/37 11/39/39
f 10/45/45 9/46/46 15/47/47
f 15/47/47 9/46/46 13/48/48
g Body2

v 24500.000000 20500.000000 200.000000
v 500.000000 20500.000000 200.000000
v 500.000000 20500.000000 300.000000
v 24500.000000 20500.000000 300.000000
v 24500.000000 500.000000 200.000000
v 24500.000000 500.000000 300.000000
v 500.000000 500.000000 200.000000
v 500.000000 500.000000 300.000000
vt -0.000000 0.000000 0.000000
vt 2399.999999 0.000000 0.000000
vt -0.000000 10.000000 0.000000
vt 2399.999999 10.000000 0.000000
vt 0.000000 0.000000 0.000000
vt 1999.999999 0.000000 0.000000
vt 0.000000 10.000000 0.000000
vt 1999.999999 10.000000 0.000000
vt 0.000000 0.000000 0.000000
vt 2399.999999 0.000000 0.000000
vt 0.000000 10.000000 0.000000
vt 2399.999999 10.000000 0.000000
vt -0.000000 0.000000 0.000000
vt 1999.999999 0.000000 0.000000
vt -0.000000 10.000000 0.000000
vt 1999.999999 10.000000 0.000000
vt -1200.000000 -1000.000000 0.000000
vt 1200.000000 -1000.000000 0.000000
vt -1200.000000 1000.000000 0.000000
vt 1200.000000 1000.000000 0.000000
vt 1200.000000 1000.000000 0.000000
vt -1200.000000 1000.000000 0.000000
vt 1200.000000 -1000.000000 0.000000
vt -1200.000000 -1000.000000 0.000000
vn 0.000000 0.100000 0.000000
vn 0.000000 0.100000 0.000000
vn 0.000000 0.100000 0.000000
vn 0.000000 0.100000 0.000000
vn 0.100000 0.000000 0.000000
vn 0.100000 0.000000 0.000000
vn 0.100000 0.000000 0.000000
vn 0.100000 0.000000 0.000000
vn 0.000000 -0.100000 0.000000
vn 0.000000 -0.100000 0.000000
vn 0.000000 -0.100000 0.000000
vn 0.000000 -0.100000 0.000000
vn -0.100000 0.000000 0.000000
vn -0.100000 0.000000 0.000000
vn -0.100000 0.000000 0.000000
vn -0.100000 0.000000 0.000000
vn 0.000000 0.000000 0.100000
vn 0.000000 0.000000 0.100000
vn 0.000000 0.000000 0.100000
vn 0.000000 0.000000 0.100000
vn 0.000000 0.000000 -0.100000
vn 0.000000 0.000000 -0.100000
vn 0.000000 0.000000 -0.100000
vn 0.000000 0.000000 -0.100000
f 17/49/49 18/50/50 20/51/51
f 20/51/51 18/50/50 19/52/52
f 21/53/53 17/54/54 22/55/55
f 22/55/55 17/54/54 20/56/56
f 23/57/57 21/58/58 24/59/59
f 24/59/59 21/58/58 22/60/60
f 18/61/61 23/62/62 19/63/63
f 19/63/63 23/62/62 24/64/64
f 24/65/65 22/66/66 19/67/67
f 19/67/67 22/66/66 20/68/68
f 18/69/69 17/70/70 23/71/71
f 23/71/71 17/70/70 21/72/72
# 24 vertices
# 72 texture params
# 72 normals
# 40 facets

# 2 groups
