# WaveFront *.obj file (generated by Autodesk ATF)

mtllib seng.mtl

g Body1

v 25.000000 25.000000 180.000000
v 25.000000 25.000000 310.000000
v 25.000000 1375.000000 310.000000
v 25.000000 1375.000000 180.000000
v 25.000000 1400.000000 180.000000
v 25.000000 1400.000000 680.000000
v 25.000000 0.000000 680.000000
v 25.000000 0.000000 180.000000
v 2000.000000 0.000000 0.000000
v 2000.000000 1400.000000 0.000000
v 2000.000000 1400.000000 180.000000
v 2000.000000 0.000000 180.000000
v 1975.000000 1375.000000 180.000000
v 1975.000000 25.000000 180.000000
v 0.000000 0.000000 0.000000
v 0.000000 1400.000000 0.000000
v 0.000000 0.000000 680.000000
v 0.000000 1400.000000 680.000000
v 1975.000000 25.000000 310.000000
v 1975.000000 1375.000000 310.000000
vt 2.500000 0.000000 0.000000
vt 2.500000 13.000000 0.000000
vt 0.000000 0.000000 0.000000
vt 0.000000 50.000000 0.000000
vt 137.500000 13.000000 0.000000
vt 140.000000 50.000000 0.000000
vt 140.000000 0.000000 0.000000
vt 137.500000 0.000000 0.000000
vt 0.000000 0.000000 0.000000
vt 140.000000 0.000000 0.000000
vt 0.000000 18.000000 0.000000
vt 140.000000 18.000000 0.000000
vt -97.500000 67.500000 0.000000
vt 97.500000 67.500000 0.000000
vt -97.500000 70.000000 0.000000
vt 100.000000 70.000000 0.000000
vt 100.000000 -70.000000 0.000000
vt 97.500000 -67.500000 0.000000
vt -97.500000 -70.000000 0.000000
vt -97.500000 -67.500000 0.000000
vt 100.000000 70.000000 0.000000
vt -100.000000 70.000000 0.000000
vt 100.000000 -70.000000 0.000000
vt -100.000000 -70.000000 0.000000
vt 140.000000 50.000000 0.000000
vt -0.000000 50.000000 0.000000
vt 140.000000 -18.000000 0.000000
vt 0.000000 -18.000000 0.000000
vt -197.500000 -18.000000 0.000000
vt 2.500000 -18.000000 0.000000
vt -0.000000 0.000000 0.000000
vt 2.500000 50.000000 0.000000
vt -0.000000 50.000000 0.000000
vt -197.500000 0.000000 0.000000
vt 2.500000 50.000000 0.000000
vt 0.000000 50.000000 0.000000
vt 2.500000 0.000000 0.000000
vt 0.000000 -18.000000 0.000000
vt 200.000000 -18.000000 0.000000
vt 200.000000 0.000000 0.000000
vt 1.250000 -70.000000 0.000000
vt 1.250000 70.000000 0.000000
vt -1.250000 -70.000000 0.000000
vt -1.250000 70.000000 0.000000
vt 0.000000 12.000000 0.000000
vt 195.000000 12.000000 0.000000
vt 0.000000 25.000000 0.000000
vt 195.000000 25.000000 0.000000
vt 0.000000 12.000000 0.000000
vt 135.000000 12.000000 0.000000
vt 0.000000 25.000000 0.000000
vt 135.000000 25.000000 0.000000
vt -0.000000 12.000000 0.000000
vt 195.000000 12.000000 0.000000
vt -0.000000 25.000000 0.000000
vt 195.000000 25.000000 0.000000
vt -97.500000 -67.500000 0.000000
vt 97.500000 -67.500000 0.000000
vt -97.500000 67.500000 0.000000
vt 97.500000 67.500000 0.000000
vn 0.100000 0.000000 0.000000
vn 0.100000 0.000000 0.000000
vn 0.100000 0.000000 0.000000
vn 0.100000 0.000000 0.000000
vn 0.100000 0.000000 0.000000
vn 0.100000 0.000000 0.000000
vn 0.100000 0.000000 0.000000
vn 0.100000 0.000000 0.000000
vn 0.100000 0.000000 0.000000
vn 0.100000 0.000000 0.000000
vn 0.100000 0.000000 0.000000
vn 0.100000 0.000000 0.000000
vn 0.000000 0.000000 0.100000
vn 0.000000 0.000000 0.100000
vn 0.000000 0.000000 0.100000
vn 0.000000 0.000000 0.100000
vn 0.000000 0.000000 0.100000
vn 0.000000 0.000000 0.100000
vn 0.000000 0.000000 0.100000
vn 0.000000 0.000000 0.100000
vn 0.000000 0.000000 -0.100000
vn 0.000000 0.000000 -0.100000
vn 0.000000 0.000000 -0.100000
vn 0.000000 0.000000 -0.100000
vn -0.100000 0.000000 0.000000
vn -0.100000 0.000000 0.000000
vn -0.100000 0.000000 0.000000
vn -0.100000 0.000000 0.000000
vn 0.000000 0.100000 0.000000
vn 0.000000 0.100000 0.000000
vn 0.000000 0.100000 0.000000
vn 0.000000 0.100000 0.000000
vn 0.000000 0.100000 0.000000
vn 0.000000 0.100000 0.000000
vn 0.000000 -0.100000 0.000000
vn 0.000000 -0.100000 0.000000
vn 0.000000 -0.100000 0.000000
vn 0.000000 -0.100000 0.000000
vn 0.000000 -0.100000 0.000000
vn 0.000000 -0.100000 0.000000
vn 0.000000 0.000000 0.100000
vn 0.000000 0.000000 0.100000
vn 0.000000 0.000000 0.100000
vn 0.000000 0.000000 0.100000
vn 0.000000 -0.100000 0.000000
vn 0.000000 -0.100000 0.000000
vn 0.000000 -0.100000 0.000000
vn 0.000000 -0.100000 0.000000
vn 0.100000 0.000000 0.000000
vn 0.100000 0.000000 0.000000
vn 0.100000 0.000000 0.000000
vn 0.100000 0.000000 0.000000
vn 0.000000 0.100000 0.000000
vn 0.000000 0.100000 0.000000
vn 0.000000 0.100000 0.000000
vn 0.000000 0.100000 0.000000
vn 0.000000 0.000000 0.100000
vn 0.000000 0.000000 0.100000
vn 0.000000 0.000000 0.100000
vn 0.000000 0.000000 0.100000
usemtl Steel_-_Satin
f 1/1/1 2/2/2 8/3/3
f 8/3/3 2/2/2 7/4/4
f 7/4/4 2/2/2 3/5/5
f 7/4/4 3/5/5 6/6/6
f 6/6/6 3/5/5 5/7/7
f 5/7/7 3/5/5 4/8/8
f 9/9/9 10/10/10 12/11/11
f 12/11/11 10/10/10 11/12/12
f 4/13/13 13/14/14 5/15/15
f 5/15/15 13/14/14 11/16/16
f 11/16/16 13/14/14 12/17/17
f 12/17/17 13/14/14 14/18/18
f 12/17/17 14/18/18 8/19/19
f 8/19/19 14/18/18 1/20/20
f 16/21/21 10/22/22 15/23/23
f 15/23/23 10/22/22 9/24/24
f 17/25/25 18/26/26 15/27/27
f 15/27/27 18/26/26 16/28/28
f 10/29/29 16/30/30 5/31/31
f 5/31/31 16/30/30 18/32/32
f 5/31/31 18/32/32 6/33/33
f 5/31/31 11/34/34 10/29/29
f 7/35/35 17/36/36 8/37/37
f 8/37/37 17/36/36 15/38/38
f 8/37/37 15/38/38 9/39/39
f 9/39/39 12/40/40 8/37/37
f 7/41/41 6/42/42 17/43/43
f 17/43/43 6/42/42 18/44/44
f 1/45/45 14/46/46 2/47/47
f 2/47/47 14/46/46 19/48/48
f 14/49/49 13/50/50 19/51/51
f 19/51/51 13/50/50 20/52/52
f 13/53/53 4/54/54 20/55/55
f 20/55/55 4/54/54 3/56/56
f 2/57/57 19/58/58 3/59/59
f 3/59/59 19/58/58 20/60/60
# 20 vertices
# 60 texture params
# 60 normals
# 36 facets

# 1 groups
