# WaveFront *.obj file (generated by Autodesk ATF)

mtllib 905ac40a-b59f-464c-b4f7-b13269d6120e.mtl

g Body1

v 700.000000 700.000000 0.000000
v 0.000000 700.000000 0.000000
v 0.000000 700.000000 950.000000
v 700.000000 700.000000 950.000000
v 700.000000 0.000000 0.000000
v 700.000000 0.000000 950.000000
v 0.000000 0.000000 0.000000
v 0.000000 0.000000 950.000000
vt 0.000000 0.000000 0.000000
vt 70.000000 0.000000 0.000000
vt 0.000000 95.000000 0.000000
vt 70.000000 95.000000 0.000000
vt 0.000000 0.000000 0.000000
vt 70.000000 0.000000 0.000000
vt 0.000000 95.000000 0.000000
vt 70.000000 95.000000 0.000000
vt 0.000000 0.000000 0.000000
vt 70.000000 0.000000 0.000000
vt 0.000000 95.000000 0.000000
vt 70.000000 95.000000 0.000000
vt 0.000000 0.000000 0.000000
vt 70.000000 0.000000 0.000000
vt 0.000000 95.000000 0.000000
vt 70.000000 95.000000 0.000000
vt -35.000000 -35.000000 0.000000
vt 35.000000 -35.000000 0.000000
vt -35.000000 35.000000 0.000000
vt 35.000000 35.000000 0.000000
vt 35.000000 35.000000 0.000000
vt -35.000000 35.000000 0.000000
vt 35.000000 -35.000000 0.000000
vt -35.000000 -35.000000 0.000000
vn 0.000000 0.100000 0.000000
vn 0.000000 0.100000 0.000000
vn 0.000000 0.100000 0.000000
vn 0.000000 0.100000 0.000000
vn 0.100000 0.000000 0.000000
vn 0.100000 0.000000 0.000000
vn 0.100000 0.000000 0.000000
vn 0.100000 0.000000 0.000000
vn 0.000000 -0.100000 0.000000
vn 0.000000 -0.100000 0.000000
vn 0.000000 -0.100000 0.000000
vn 0.000000 -0.100000 0.000000
vn -0.100000 0.000000 0.000000
vn -0.100000 0.000000 0.000000
vn -0.100000 0.000000 0.000000
vn -0.100000 0.000000 0.000000
vn 0.000000 0.000000 0.100000
vn 0.000000 0.000000 0.100000
vn 0.000000 0.000000 0.100000
vn 0.000000 0.000000 0.100000
vn 0.000000 0.000000 -0.100000
vn 0.000000 0.000000 -0.100000
vn 0.000000 0.000000 -0.100000
vn 0.000000 0.000000 -0.100000
usemtl Steel_-_Satin
f 1/1/1 2/2/2 4/3/3
f 4/3/3 2/2/2 3/4/4
f 5/5/5 1/6/6 6/7/7
f 6/7/7 1/6/6 4/8/8
f 7/9/9 5/10/10 8/11/11
f 8/11/11 5/10/10 6/12/12
f 2/13/13 7/14/14 3/15/15
f 3/15/15 7/14/14 8/16/16
f 8/17/17 6/18/18 3/19/19
f 3/19/19 6/18/18 4/20/20
f 2/21/21 1/22/22 7/23/23
f 7/23/23 1/22/22 5/24/24
g Body3

v 700.000000 700.000000 950.000000
v 0.000000 700.000000 950.000000
v 0.000000 700.000000 1000.000000
v 700.000000 700.000000 1000.000000
v 700.000000 0.000000 950.000000
v 700.000000 0.000000 1000.000000
v 0.000000 0.000000 950.000000
v 0.000000 0.000000 1000.000000
vt 0.000000 0.000000 0.000000
vt 70.000000 0.000000 0.000000
vt 0.000000 5.000000 0.000000
vt 70.000000 5.000000 0.000000
vt 0.000000 0.000000 0.000000
vt 70.000000 0.000000 0.000000
vt 0.000000 5.000000 0.000000
vt 70.000000 5.000000 0.000000
vt 0.000000 0.000000 0.000000
vt 70.000000 0.000000 0.000000
vt 0.000000 5.000000 0.000000
vt 70.000000 5.000000 0.000000
vt 0.000000 0.000000 0.000000
vt 70.000000 0.000000 0.000000
vt 0.000000 5.000000 0.000000
vt 70.000000 5.000000 0.000000
vt -35.000000 -35.000000 0.000000
vt 35.000000 -35.000000 0.000000
vt -35.000000 35.000000 0.000000
vt 35.000000 35.000000 0.000000
vt 35.000000 35.000000 0.000000
vt -35.000000 35.000000 0.000000
vt 35.000000 -35.000000 0.000000
vt -35.000000 -35.000000 0.000000
vn 0.000000 0.100000 0.000000
vn 0.000000 0.100000 0.000000
vn 0.000000 0.100000 0.000000
vn 0.000000 0.100000 0.000000
vn 0.100000 0.000000 0.000000
vn 0.100000 0.000000 0.000000
vn 0.100000 0.000000 0.000000
vn 0.100000 0.000000 0.000000
vn 0.000000 -0.100000 0.000000
vn 0.000000 -0.100000 0.000000
vn 0.000000 -0.100000 0.000000
vn 0.000000 -0.100000 0.000000
vn -0.100000 0.000000 0.000000
vn -0.100000 0.000000 0.000000
vn -0.100000 0.000000 0.000000
vn -0.100000 0.000000 0.000000
vn 0.000000 0.000000 0.100000
vn 0.000000 0.000000 0.100000
vn 0.000000 0.000000 0.100000
vn 0.000000 0.000000 0.100000
vn 0.000000 0.000000 -0.100000
vn 0.000000 0.000000 -0.100000
vn 0.000000 0.000000 -0.100000
vn 0.000000 0.000000 -0.100000
f 9/25/25 10/26/26 12/27/27
f 12/27/27 10/26/26 11/28/28
f 13/29/29 9/30/30 14/31/31
f 14/31/31 9/30/30 12/32/32
f 15/33/33 13/34/34 16/35/35
f 16/35/35 13/34/34 14/36/36
f 10/37/37 15/38/38 11/39/39
f 11/39/39 15/38/38 16/40/40
f 16/41/41 14/42/42 11/43/43
f 11/43/43 14/42/42 12/44/44
f 10/45/45 9/46/46 15/47/47
f 15/47/47 9/46/46 13/48/48
g Body4

v 700.000000 675.000000 1000.000000
v 700.000000 700.000000 1000.000000
v 700.000000 700.000000 1100.000000
v 700.000000 675.000000 1100.000000
v 25.000000 675.000000 1000.000000
v 25.000000 675.000000 1100.000000
v 25.000000 0.000000 1000.000000
v 25.000000 0.000000 1100.000000
v 0.000000 0.000000 1000.000000
v 0.000000 0.000000 1100.000000
v 0.000000 700.000000 1000.000000
v 0.000000 700.000000 1100.000000
vt 0.000000 0.000000 0.000000
vt 2.500000 0.000000 0.000000
vt 0.000000 10.000000 0.000000
vt 2.500000 10.000000 0.000000
vt 0.000000 0.000000 0.000000
vt 67.500000 0.000000 0.000000
vt 0.000000 10.000000 0.000000
vt 67.500000 10.000000 0.000000
vt 0.000000 0.000000 0.000000
vt 67.500000 0.000000 0.000000
vt 0.000000 10.000000 0.000000
vt 67.500000 10.000000 0.000000
vt 0.000000 0.000000 0.000000
vt 2.500000 0.000000 0.000000
vt 0.000000 10.000000 0.000000
vt 2.500000 10.000000 0.000000
vt 0.000000 0.000000 0.000000
vt 70.000000 0.000000 0.000000
vt 0.000000 10.000000 0.000000
vt 70.000000 10.000000 0.000000
vt 0.000000 0.000000 0.000000
vt 70.000000 0.000000 0.000000
vt 0.000000 10.000000 0.000000
vt 70.000000 10.000000 0.000000
vt 35.000000 32.500000 0.000000
vt 35.000000 35.000000 0.000000
vt -32.500000 32.500000 0.000000
vt -35.000000 35.000000 0.000000
vt -35.000000 -35.000000 0.000000
vt -32.500000 -35.000000 0.000000
vt -35.000000 35.000000 0.000000
vt -35.000000 -35.000000 0.000000
vt -32.500000 -32.500000 0.000000
vt 35.000000 -35.000000 0.000000
vt 35.000000 -32.500000 0.000000
vt -32.500000 35.000000 0.000000
vn 0.100000 0.000000 0.000000
vn 0.100000 0.000000 0.000000
vn 0.100000 0.000000 0.000000
vn 0.100000 0.000000 0.000000
vn 0.000000 -0.100000 0.000000
vn 0.000000 -0.100000 0.000000
vn 0.000000 -0.100000 0.000000
vn 0.000000 -0.100000 0.000000
vn 0.100000 0.000000 0.000000
vn 0.100000 0.000000 0.000000
vn 0.100000 0.000000 0.000000
vn 0.100000 0.000000 0.000000
vn 0.000000 -0.100000 0.000000
vn 0.000000 -0.100000 0.000000
vn 0.000000 -0.100000 0.000000
vn 0.000000 -0.100000 0.000000
vn -0.100000 0.000000 0.000000
vn -0.100000 0.000000 0.000000
vn -0.100000 0.000000 0.000000
vn -0.100000 0.000000 0.000000
vn 0.000000 0.100000 0.000000
vn 0.000000 0.100000 0.000000
vn 0.000000 0.100000 0.000000
vn 0.000000 0.100000 0.000000
vn 0.000000 0.000000 0.100000
vn 0.000000 0.000000 0.100000
vn 0.000000 0.000000 0.100000
vn 0.000000 0.000000 0.100000
vn 0.000000 0.000000 0.100000
vn 0.000000 0.000000 0.100000
vn 0.000000 0.000000 -0.100000
vn 0.000000 0.000000 -0.100000
vn 0.000000 0.000000 -0.100000
vn 0.000000 0.000000 -0.100000
vn 0.000000 0.000000 -0.100000
vn 0.000000 0.000000 -0.100000
f 17/49/49 18/50/50 20/51/51
f 20/51/51 18/50/50 19/52/52
f 21/53/53 17/54/54 22/55/55
f 22/55/55 17/54/54 20/56/56
f 23/57/57 21/58/58 24/59/59
f 24/59/59 21/58/58 22/60/60
f 25/61/61 23/62/62 26/63/63
f 26/63/63 23/62/62 24/64/64
f 27/65/65 25/66/66 28/67/67
f 28/67/67 25/66/66 26/68/68
f 18/69/69 27/70/70 19/71/71
f 19/71/71 27/70/70 28/72/72
f 20/73/73 19/74/74 22/75/75
f 22/75/75 19/74/74 28/76/76
f 22/75/75 28/76/76 26/77/77
f 26/77/77 24/78/78 22/75/75
f 25/79/79 27/80/80 21/81/81
f 21/81/81 27/80/80 18/82/82
f 21/81/81 18/82/82 17/83/83
f 21/81/81 23/84/84 25/79/79
# 28 vertices
# 84 texture params
# 84 normals
# 44 facets

# 3 groups
